#N canvas 121 81 1067 450 10;
#X msg 359 207 read myNewFile.txt;
#X obj 129 80 t b b b b b b;
#X msg 197 170 blue;
#X msg 304 143 red;
#X obj 237 281 pack s f;
#X obj 119 265 textfile;
#X msg 251 169 green;
#X obj 181 374 route red;
#X obj 277 370 route green;
#X obj 453 366 route blue;
#X obj 59 443 t f b f;
#N canvas 0 22 450 278 (subpatch) 0;
#X array reds 9 float 3;
#A 0 183 140 174 39 222 85 146 134 116;
#X coords 0 0 9 256 200 140 1 0 0;
#X restore 561 95 graph;
#X obj 46 583 tabwrite reds;
#X obj 187 455 + 1;
#X obj 155 338 list trim;
#X obj 286 438 t f b f;
#X obj 287 500 f 1;
#X obj 425 494 mod 9;
#X obj 414 450 + 1;
#X obj 528 443 t f b f;
#X obj 529 505 f 1;
#X obj 667 499 mod 9;
#X obj 656 455 + 1;
#X obj 279 343 list trim;
#X obj 425 325 list trim;
#X obj 273 573 tabwrite greens;
#X obj 515 578 tabwrite blues;
#N canvas 0 22 450 278 (subpatch) 0;
#X array greens 9 float 3;
#A 0 100 180 27 227 147 186 150 132 185;
#X coords 0 0 9 256 200 140 2 0 0;
#X restore 785 93 graph;
#N canvas 0 22 450 278 (subpatch) 0;
#X array blues 9 float 3;
#A 0 204 172 115 224 115 164 160 120 192;
#X coords 0 0 9 256 200 250 2 0 0;
#X restore 1002 91 graph;
#N canvas 467 103 881 478 redAudio 0;
#X obj 132 66 tgl 15 0 empty empty empty 17 7 0 10 -262144 -1 -1 1
1;
#X obj 423 153 tabread reds;
#N canvas 30 269 450 300 counter 0;
#X obj 187 176 + 1;
#X obj 181 146 f 1;
#X obj 83 49 inlet;
#X obj 276 242 outlet;
#X obj 167 120 metro 200;
#X obj 278 213 + 1;
#X obj 273 178 mod 8;
#X obj 264 83 list-accum;
#X floatatom 349 168 5 0 0 0 - - -;
#X obj 181 20 metro 100;
#X obj 245 50 tabdump reds;
#X connect 0 0 6 0;
#X connect 1 0 0 0;
#X connect 2 0 4 0;
#X connect 2 0 9 0;
#X connect 4 0 1 0;
#X connect 5 0 3 0;
#X connect 6 0 0 1;
#X connect 6 0 5 0;
#X connect 7 0 4 1;
#X connect 7 0 8 0;
#X connect 9 0 10 0;
#X connect 10 0 7 0;
#X restore 451 41 pd counter;
#X obj 430 292 mtof;
#X obj 432 362 osc~;
#X floatatom 314 272 5 0 0 0 - - -;
#X obj 483 603 dac~;
#X obj 425 325 line~;
#X obj 640 252 mtof;
#X obj 567 373 osc~;
#X obj 604 158 tabread reds;
#X obj 358 210 expr 80 - (60*($f1/255));
#X obj 605 201 expr 100 - (60*($f1/255));
#X floatatom 403 74 5 0 0 0 - - -;
#X obj 517 98 + 1;
#X floatatom 744 172 5 0 0 0 - - -;
#X obj 690 108 mod 8;
#X obj 718 138 + 1;
#X obj 425 401 lop~ 4000;
#X msg 550 251 30;
#X obj 567 404 *~ 0.3;
#X obj 625 312 line~;
#X obj 555 443 lop~ 4000;
#X text 652 72 comment;
#X obj 426 485 *~ 0.3;
#X obj 512 499 *~ 0.2;
#X floatatom 350 166 5 0 0 0 - - -;
#X obj 130 39 inlet;
#X connect 0 0 2 0;
#X connect 1 0 11 0;
#X connect 1 0 26 0;
#X connect 2 0 19 0;
#X connect 2 0 13 0;
#X connect 2 0 14 0;
#X connect 2 0 1 0;
#X connect 3 0 7 0;
#X connect 4 0 18 0;
#X connect 7 0 4 0;
#X connect 8 0 21 0;
#X connect 9 0 20 0;
#X connect 10 0 12 0;
#X connect 11 0 3 0;
#X connect 11 0 5 0;
#X connect 12 0 8 0;
#X connect 14 0 16 0;
#X connect 16 0 17 0;
#X connect 17 0 15 0;
#X connect 17 0 10 0;
#X connect 18 0 24 0;
#X connect 19 0 7 1;
#X connect 20 0 22 0;
#X connect 21 0 9 0;
#X connect 22 0 25 0;
#X connect 24 0 6 0;
#X connect 24 0 6 1;
#X connect 25 0 6 1;
#X connect 25 0 6 0;
#X connect 27 0 0 0;
#X restore 619 324 pd redAudio;
#X obj 60 505 f 1;
#X obj 198 498 mod 9;
#X obj 106 16 metro 500;
#X obj 47 35 tgl 15 0 empty empty empty 17 7 0 10 -262144 -1 -1 0 1
;
#X msg 442 120 rewind;
#X obj 169 36 t b b b b b b b b b b b;
#N canvas 0 23 1280 686 greenAudio 0;
#N canvas 0 23 868 525 tom1Green 0;
#X obj 482 499 *~;
#X obj 534 455 line~;
#X msg 602 294 bang;
#X obj 470 172 bng 15 250 50 0 empty empty empty 17 7 0 10 -262144
-1 -1;
#X obj 352 280 line~;
#X obj 601 330 delay 5;
#X obj 197 218 noise~;
#X obj 335 312 +~;
#X obj 339 342 osc~ 110;
#X msg 600 260 1 100;
#X obj 204 256 *~ 0.42;
#X obj 880 13 inlet;
#X obj 480 551 outlet~;
#X obj 600 370 0 80;
#X msg 354 239 250 \, 200 300;
#X obj 868 91 * 2;
#X obj 783 263 tabread greens;
#X obj 781 221 mod 9;
#X obj 741 340 mod 2;
#X obj 498 135 metro;
#X floatatom 855 463 5 0 0 0 - - -;
#X obj 744 390 + 2;
#X obj 661 215 *;
#X floatatom 968 78 5 0 0 0 - - -;
#X floatatom 733 294 5 0 0 0 - - -;
#X obj 661 47 * 32;
#X obj 630 95 metro;
#X obj 701 183 counter 0 0 4;
#X obj 405 34 inlet bang;
#X obj 409 71 tgl 15 0 empty empty empty 17 7 0 10 -262144 -1 -1 1
1;
#X floatatom 693 98 5 0 0 0 - - -;
#X obj 737 449 expr if($f1< 50 \, $f1*200 \, $f1);
#X connect 0 0 12 0;
#X connect 1 0 0 1;
#X connect 2 0 5 0;
#X connect 3 0 9 0;
#X connect 3 0 14 0;
#X connect 4 0 7 1;
#X connect 5 0 13 0;
#X connect 6 0 10 0;
#X connect 7 0 8 0;
#X connect 8 0 0 0;
#X connect 9 0 1 0;
#X connect 9 0 2 0;
#X connect 10 0 7 0;
#X connect 11 0 15 0;
#X connect 11 0 23 0;
#X connect 11 0 25 0;
#X connect 13 0 1 0;
#X connect 14 0 4 0;
#X connect 15 0 22 0;
#X connect 16 0 18 0;
#X connect 17 0 16 0;
#X connect 18 0 21 0;
#X connect 19 0 3 0;
#X connect 21 0 22 1;
#X connect 21 0 31 0;
#X connect 22 0 20 0;
#X connect 25 0 26 1;
#X connect 25 0 30 0;
#X connect 26 0 27 0;
#X connect 27 0 24 0;
#X connect 27 3 17 0;
#X connect 28 0 29 0;
#X connect 29 0 19 0;
#X connect 29 0 26 0;
#X connect 31 0 19 1;
#X restore 241 402 pd tom1Green;
#X obj 366 647 dac~;
#X obj 33 120 tabread greens;
#X obj 197 24 tgl 15 0 empty empty empty 17 7 0 10 -262144 -1 -1 1
1;
#N canvas 96 136 921 536 Bass1Green 0;
#X obj 297 338 *~;
#X obj 396 377 line~;
#X msg 492 287 bang;
#X obj 485 155 bng 15 250 50 0 empty empty empty 17 7 0 10 -262144
-1 -1;
#X obj 284 269 line~;
#X obj 207 228 noise~;
#X obj 258 290 +~;
#X msg 484 220 1 100;
#X obj 214 266 *~ 0.42;
#X obj 461 52 inlet;
#X obj 304 424 outlet~;
#X obj 535 120 metro;
#X obj 297 312 osc~ 100;
#X floatatom 667 184 5 0 0 0 - - -;
#X obj 500 311 delay 5;
#X floatatom 436 81 5 0 0 0 - - -;
#X msg 302 237 120 \, 100 100;
#X obj 489 357 0 100;
#X obj 574 78 expr if($f1< 100 \, $f1*8 \, $f1);
#X obj 374 118 tgl 15 0 empty empty empty 17 7 0 10 -262144 -1 -1 1
1;
#X obj 276 46 inlet bang;
#X obj 602 126 expr if($f1< 100 \, $f1*$f1 \, $f1);
#X connect 0 0 10 0;
#X connect 1 0 0 1;
#X connect 2 0 14 0;
#X connect 3 0 7 0;
#X connect 3 0 16 0;
#X connect 4 0 6 1;
#X connect 5 0 8 0;
#X connect 6 0 12 0;
#X connect 7 0 1 0;
#X connect 7 0 2 0;
#X connect 8 0 6 0;
#X connect 9 0 15 0;
#X connect 9 0 18 0;
#X connect 11 0 3 0;
#X connect 12 0 0 0;
#X connect 14 0 17 0;
#X connect 16 0 4 0;
#X connect 17 0 1 0;
#X connect 18 0 13 0;
#X connect 18 0 21 0;
#X connect 19 0 11 0;
#X connect 20 0 19 0;
#X connect 21 0 11 1;
#X restore 364 427 pd Bass1Green;
#X msg 32 87 1;
#X obj 35 55 metro 500;
#N canvas 0 24 720 643 beat2Green 0;
#X obj 279 571 *~;
#X obj 409 394 line~;
#X msg 463 285 bang;
#X obj 348 160 bng 15 250 50 0 empty empty empty 17 7 0 10 -262144
-1 -1;
#X obj 193 457 line~;
#X obj 462 322 delay 5;
#X obj 82 421 noise~;
#X obj 116 481 +~;
#X msg 453 230 1 100;
#X obj 351 -5 inlet;
#X obj 313 596 outlet~;
#X floatatom 409 103 5 0 0 0 - - -;
#X obj 355 103 metro;
#X obj 200 244 tabread greens;
#X obj 462 358 0 200;
#X floatatom 105 225 5 0 0 0 - - -;
#X floatatom 109 272 5 0 0 0 - - -;
#X floatatom 149 428 5 0 0 0 - - -;
#X obj 200 529 osc~ 200;
#X floatatom 341 233 5 0 0 0 - - -;
#X obj 198 214 mod 9;
#X obj 85 452 *~ 0.82;
#X obj 149 179 counter 0 0 7;
#X obj 280 69 tgl 15 0 empty empty empty 17 7 0 10 -262144 -1 -1 1
1;
#X obj 201 304 expr if($f1< 30 \, $f1*$f1 \, $f1*3);
#X msg 194 428 \$1 \, \$1 200;
#X obj 202 278 expr if($f1< 10 \, $f1*$f1 \, $f1);
#X obj 201 27 inlet banged;
#X obj 349 37 * 16;
#X obj 365 75 expr if($f1< 100 \, $f1+100 \, $f1);
#X connect 0 0 10 0;
#X connect 1 0 0 1;
#X connect 2 0 5 0;
#X connect 3 0 8 0;
#X connect 3 0 20 0;
#X connect 3 0 22 0;
#X connect 4 0 7 1;
#X connect 5 0 14 0;
#X connect 6 0 21 0;
#X connect 7 0 18 0;
#X connect 8 0 1 0;
#X connect 8 0 2 0;
#X connect 9 0 28 0;
#X connect 12 0 3 0;
#X connect 13 0 16 0;
#X connect 13 0 26 0;
#X connect 14 0 1 0;
#X connect 18 0 0 0;
#X connect 20 0 13 0;
#X connect 21 0 7 0;
#X connect 22 0 15 0;
#X connect 22 3 20 0;
#X connect 22 3 19 0;
#X connect 23 0 12 0;
#X connect 24 0 25 0;
#X connect 24 0 17 0;
#X connect 25 0 4 0;
#X connect 26 0 24 0;
#X connect 27 0 23 0;
#X connect 28 0 11 0;
#X connect 28 0 29 0;
#X connect 29 0 12 1;
#X restore 67 313 pd beat2Green;
#N canvas 430 157 668 407 bassMain 0;
#X obj 189 161 osc~ 51;
#X obj 189 187 *~;
#X obj 288 226 line~;
#X msg 328 115 1 5;
#X msg 384 136 bang;
#X obj 279 46 bng 15 250 50 0 empty empty empty 17 7 0 10 -262144 -1
-1;
#X msg 178 77 70 \, 51 10;
#X obj 176 118 line~;
#X obj 392 160 delay 5;
#X obj 380 208 0 300;
#X obj 99 77 noise~;
#X obj 106 115 *~ 0.02;
#X obj 150 139 +~;
#X obj 304 -29 inlet;
#X obj 318 22 metro;
#X obj 394 2 * 32;
#X obj 150 257 outlet~;
#X obj 237 -12 tgl 15 0 empty empty empty 17 7 0 10 -262144 -1 -1 1
1;
#X obj 115 -2 inlet bang;
#X floatatom 487 78 5 0 0 0 - - -;
#X connect 0 0 1 0;
#X connect 1 0 16 0;
#X connect 2 0 1 1;
#X connect 3 0 2 0;
#X connect 3 0 4 0;
#X connect 4 0 8 0;
#X connect 5 0 3 0;
#X connect 5 0 6 0;
#X connect 6 0 7 0;
#X connect 7 0 12 1;
#X connect 8 0 9 0;
#X connect 9 0 2 0;
#X connect 10 0 11 0;
#X connect 11 0 12 0;
#X connect 12 0 0 0;
#X connect 13 0 15 0;
#X connect 14 0 5 0;
#X connect 15 0 14 1;
#X connect 15 0 19 0;
#X connect 17 0 14 0;
#X connect 18 0 17 0;
#X restore 501 419 pd bassMain;
#X obj 261 43 bng 15 250 50 0 empty empty empty 17 7 0 10 -262144 -1
-1;
#X obj 344 46 print Greens Banged;
#X obj 283 487 *~ 1;
#X obj 357 521 *~ 1;
#X obj 450 527 *~ 1;
#X obj 550 17 inlet;
#X connect 0 0 11 0;
#X connect 2 0 0 1;
#X connect 2 0 4 1;
#X connect 2 0 7 1;
#X connect 2 0 8 1;
#X connect 3 0 6 0;
#X connect 4 0 12 0;
#X connect 5 0 2 0;
#X connect 6 0 5 0;
#X connect 7 0 1 0;
#X connect 7 0 1 1;
#X connect 8 0 13 0;
#X connect 9 0 7 0;
#X connect 9 0 10 0;
#X connect 9 0 0 0;
#X connect 9 0 4 0;
#X connect 9 0 8 0;
#X connect 9 0 3 0;
#X connect 11 0 1 0;
#X connect 11 0 1 1;
#X connect 12 0 1 0;
#X connect 12 0 1 1;
#X connect 13 0 1 1;
#X connect 13 0 1 0;
#X connect 14 0 9 0;
#X restore 752 324 pd greenAudio;
#N canvas 0 23 1280 686 blueAudio 0;
#X obj 192 283 tabread blues;
#X obj 120 65 tgl 15 0 empty empty empty 17 7 0 10 -262144 -1 -1 1
1;
#X obj 191 201 counter 1 8;
#X obj 115 140 metro 5000;
#X obj 320 236 tabdump blues;
#X obj 319 187 bng 15 250 50 0 empty empty empty 17 7 0 10 -262144
-1 -1;
#X obj 265 522 osc~;
#X obj 319 515 osc~;
#X obj 298 454 +;
#X obj 317 291 list-harmonic-mean;
#X obj 370 371 +;
#X obj 1002 454 osc~;
#X obj 252 474 mtof~;
#X obj 1032 202 mtof~;
#X obj 317 494 mtof~;
#X floatatom 189 550 5 0 0 0 - - -;
#X floatatom 624 132 5 0 0 0 - - -;
#X floatatom 521 397 5 0 0 0 - - -;
#X obj 193 309 / 255;
#X obj 223 371 * 60;
#X obj 226 406 + 20;
#X obj 586 45 expr if($f1 > 100 \, $f1/3 \, $f1);
#X obj 771 119 expr if($f1 > 90 \, $f1-10 \, $f1);
#X floatatom 552 187 5 0 0 0 - - -;
#X obj -34 714 line~;
#X obj 65 714 line~;
#X obj 3 821 *~;
#X obj 0 952 dac~;
#X msg -37 672 1 \, 0 50;
#X msg 67 658 1000 \, 70 3000;
#X obj 102 807 vd~ tommy 200;
#X obj 115 900 delwrite~ tommy 1000;
#X obj -38 604 metro 3000;
#X obj 735 400 line~;
#X obj 834 400 line~;
#X obj 650 537 *~;
#X obj 483 965 dac~;
#X msg 732 358 1 \, 0 50;
#X msg 836 344 1000 \, 70 3000;
#X obj 884 586 delwrite~ tommy2 1000;
#X obj 871 493 vd~ tommy2 400;
#X obj 731 290 metro 2000;
#X obj 881 532 *~ 0.3;
#X obj 113 845 *~ 0.3;
#X obj 532 302 list-accum;
#X obj 322 473 expr if($f1 > 90 \, $f1-10 \, $f1);
#X floatatom 652 463 5 0 0 0 - - -;
#X floatatom 624 418 5 0 0 0 - - -;
#X obj 509 339 expr if($f1 < 1200 \, $f1/1200 \, $f1*.0001);
#X obj 576 487 - 1;
#X obj 791 462 abs;
#X floatatom 735 498 5 0 0 0 - - -;
#X obj 244 55 inlet;
#X text 382 258;
#X connect 0 0 18 0;
#X connect 1 0 3 0;
#X connect 1 0 32 0;
#X connect 1 0 41 0;
#X connect 2 0 0 0;
#X connect 3 0 2 0;
#X connect 3 0 5 0;
#X connect 4 0 9 0;
#X connect 4 0 44 0;
#X connect 5 0 4 0;
#X connect 6 0 26 0;
#X connect 7 0 26 0;
#X connect 8 0 10 0;
#X connect 8 0 45 0;
#X connect 9 0 17 0;
#X connect 9 0 8 0;
#X connect 9 0 12 0;
#X connect 10 0 21 0;
#X connect 11 0 35 0;
#X connect 12 0 6 0;
#X connect 13 0 11 0;
#X connect 14 0 7 0;
#X connect 18 0 19 0;
#X connect 19 0 20 0;
#X connect 20 0 8 1;
#X connect 20 0 10 1;
#X connect 20 0 15 0;
#X connect 21 0 16 0;
#X connect 21 0 22 0;
#X connect 22 0 13 0;
#X connect 22 0 23 0;
#X connect 24 0 26 1;
#X connect 25 0 30 0;
#X connect 26 0 27 0;
#X connect 26 0 31 0;
#X connect 28 0 24 0;
#X connect 29 0 25 0;
#X connect 30 0 27 1;
#X connect 30 0 43 0;
#X connect 32 0 28 0;
#X connect 32 0 29 0;
#X connect 33 0 35 1;
#X connect 34 0 40 0;
#X connect 35 0 36 1;
#X connect 35 0 39 0;
#X connect 37 0 33 0;
#X connect 38 0 34 0;
#X connect 40 0 36 0;
#X connect 40 0 42 0;
#X connect 41 0 37 0;
#X connect 41 0 38 0;
#X connect 42 0 39 0;
#X connect 43 0 31 0;
#X connect 44 0 47 0;
#X connect 44 0 48 0;
#X connect 45 0 14 0;
#X connect 48 0 46 0;
#X connect 48 0 43 1;
#X connect 48 0 49 0;
#X connect 49 0 50 0;
#X connect 50 0 42 1;
#X connect 50 0 51 0;
#X connect 52 0 1 0;
#X restore 864 326 pd blueAudio;
#X obj 802 285 bng 15 250 50 0 empty empty empty 17 7 0 10 -262144
-1 -1;
#X connect 0 0 5 0;
#X connect 1 0 5 0;
#X connect 1 1 2 0;
#X connect 1 2 5 0;
#X connect 1 3 6 0;
#X connect 1 4 5 0;
#X connect 1 5 3 0;
#X connect 2 0 4 0;
#X connect 3 0 4 0;
#X connect 4 0 14 0;
#X connect 4 0 23 0;
#X connect 4 0 24 0;
#X connect 5 0 4 1;
#X connect 6 0 4 0;
#X connect 7 0 10 0;
#X connect 8 0 15 0;
#X connect 9 0 19 0;
#X connect 10 0 12 0;
#X connect 10 1 30 0;
#X connect 13 0 31 0;
#X connect 14 0 7 0;
#X connect 15 0 25 0;
#X connect 15 1 16 0;
#X connect 16 0 18 0;
#X connect 17 0 16 1;
#X connect 17 0 25 1;
#X connect 18 0 17 0;
#X connect 19 0 26 0;
#X connect 19 1 20 0;
#X connect 20 0 22 0;
#X connect 21 0 20 1;
#X connect 21 0 26 1;
#X connect 22 0 21 0;
#X connect 23 0 8 0;
#X connect 24 0 9 0;
#X connect 30 0 13 0;
#X connect 31 0 12 1;
#X connect 31 0 30 1;
#X connect 32 0 35 0;
#X connect 33 0 32 0;
#X connect 34 0 5 0;
#X connect 35 0 34 0;
#X connect 35 1 0 0;
#X connect 35 2 1 0;
#X connect 35 3 1 0;
#X connect 35 4 1 0;
#X connect 35 5 1 0;
#X connect 35 6 1 0;
#X connect 35 7 1 0;
#X connect 35 8 1 0;
#X connect 35 9 1 0;
#X connect 35 10 1 0;
#X connect 38 0 36 0;
#X connect 38 0 29 0;
#X connect 38 0 37 0;
